/* XPM */
static char *highlight_xpm[]={
"32 32 62 1",
". c None",
"n c #000000",
"O c #003300",
"m c #003333",
"h c #003366",
"Z c #006666",
"d c #006699",
"p c #333300",
"k c #333333",
"A c #333366",
"V c #336633",
"I c #336666",
"# c #336699",
"i c #3366cc",
"H c #339999",
"j c #3399cc",
"o c #663300",
"3 c #663333",
"v c #666633",
"K c #666666",
"P c #669966",
"f c #669999",
"e c #6699cc",
"a c #66cccc",
"N c #66ccff",
"7 c #66ffff",
"Y c #990000",
"D c #993300",
"2 c #993333",
"J c #996633",
"F c #996666",
"u c #999966",
"E c #99cc99",
"b c #99cccc",
"U c #99ffff",
"0 c #cc0000",
"s c #cc3300",
"w c #cc6600",
"y c #cc6633",
"R c #cc9933",
"G c #cc9966",
"6 c #cc9999",
"T c #cccc33",
"B c #cccc66",
"5 c #cccc99",
"g c #cccccc",
"t c #ccccff",
"1 c #ccff99",
"z c #ccffcc",
"c c #ccffff",
"X c #ff3300",
"M c #ff6600",
"x c #ff9900",
"W c #ff9933",
"S c #ff9966",
"r c #ffcc33",
"C c #ffcc66",
"Q c #ffcc99",
"L c #ffff33",
"4 c #ffff99",
"q c #ffffcc",
"l c #ffffff",
"................................",
".............#abc...............",
"...........c#ddefcg.............",
"...........hhhiddjak............",
"..........lhmnnnnmopnpkq........",
"..........nnnrronnsntuknnnkv....",
"..........ngwsxrwsynpl..........",
"..........lggzgcAvuBCD..........",
".........lglEeknnFgG............",
".........aHInnnJggCs............",
".........bekkKpLLLLM............",
"........lNfkkOPLLLrMQ...........",
"........aHnOpvRrLLrMS...........",
"........aOKvuvuTrrxMS...........",
".......UbIVVVpRLrxxsl...........",
".......cVVVVvVrLLWMX............",
".......PVekPPkLrrXXY............",
"......IHhIIZj#rrWX0u............",
"......dejjjjjdIMs00.............",
"......nj##djdmo00YR.............",
"..l1zcnUddhhhn00YD..............",
"...OpUn#ajhhp00YD...............",
".....nnNjhn2s0YQ................",
".....nnnnnWWMYnWs2..............",
"......nnnhxr3nnspG.g............",
"......UjdIL...lXzpF4q5g.........",
"......UUjv.....6.gnu5vqq1.......",
"......Ua#...........lJkkqqzq....",
"......7dh..............zppqq....",
"......ehF.................vn....",
"......q.........................",
"................................"};
